<?xml version="1.0" encoding="UTF-8" standalone="no"?>
<svg
   width="677.00018"
   height="677.00018"
   version="1.1"
   id="svg25"
   xmlns="http://www.w3.org/2000/svg"
   xmlns:svg="http://www.w3.org/2000/svg">
  <defs
     id="defs25" />
  <path
     fill="#58d5e6"
     d="M 0,0 H 677.00019 V 677.00019 H 0 Z"
     id="path1"
     style="stroke-width:0.661133" />
  <g
     id="g26"
     transform="matrix(2.580086,0,0,2.580086,-731.71325,-580.63131)">
    <g
       id="g25"
       transform="translate(5.2477486,51.160822)">
      <path
         fill="#050c64"
         transform="matrix(0.661133,0,0,0.661133,1.52588e-5,0)"
         d="m 648.983,459.511 c 0.742,-0.032 1.486,-0.065 2.228,-0.04 1.822,0.06 3.195,0.791 4.349,2.221 1.894,2.346 1.328,6.647 0.929,9.421 -1.845,12.815 -8.652,23.947 -19.024,31.648 q -0.983,0.726 -2,1.403 -1.017,0.676 -2.066,1.302 -1.049,0.627 -2.127,1.201 -1.078,0.574 -2.183,1.094 -1.105,0.521 -2.235,0.987 -1.129,0.466 -2.28,0.876 -1.15,0.41 -2.32,0.763 -1.169,0.354 -2.355,0.649 -1.185,0.296 -2.383,0.533 -1.199,0.237 -2.407,0.415 -1.209,0.179 -2.424,0.298 -1.216,0.119 -2.437,0.178 -1.22,0.059 -2.441,0.058 -1.222,0 -2.442,-0.06 -1.22,-0.061 -2.436,-0.181 -1.216,-0.12 -2.424,-0.299 c -13.26,-1.982 -24.327,-9.093 -32.29,-19.741 -2.262,-3.481 -3.798,-6.168 -3.535,-10.489 0.131,-2.151 0.692,-3.586 2.267,-5.044 0.94,-0.363 1.629,-0.556 2.626,-0.387 5.097,0.867 6.324,6.015 8.949,9.742 5.124,7.277 13.817,12.448 22.522,14.004 9.898,1.769 20.689,-0.517 28.938,-6.299 6.64,-4.655 11.931,-11.952 13.844,-19.885 0.744,-3.084 0.926,-6.292 1.511,-9.408 0.452,-2.403 1.142,-3.363 3.197,-4.679 0.148,-0.096 0.299,-0.187 0.449,-0.281 z"
         id="path15" />
      <path
         fill="#050c64"
         transform="matrix(0.661133,0,0,0.661133,1.52588e-5,0)"
         d="m 505.445,479.639 c 2.757,-0.125 5.331,-0.16 8.049,0.472 7.513,1.749 13.349,6.732 17.222,13.252 5.782,9.733 6.496,22.254 3.681,33.05 -2.883,11.055 -9.287,20.942 -16.374,29.747 -1.593,1.979 -3.432,4.655 -5.697,5.867 -6.061,3.242 -25.267,-2.774 -31.453,-4.847 l -0.803,-0.317 c -12.636,-5.078 -26.331,-13.754 -31.781,-26.866 -2.814,-6.768 -3.179,-14.725 -0.264,-21.525 q 0.238,-0.547 0.504,-1.08 0.266,-0.534 0.558,-1.054 0.292,-0.52 0.61,-1.024 0.318,-0.505 0.66,-0.993 0.343,-0.488 0.71,-0.958 0.367,-0.47 0.757,-0.921 0.39,-0.451 0.803,-0.881 0.412,-0.431 0.845,-0.841 0.434,-0.409 0.887,-0.796 0.454,-0.388 0.926,-0.751 0.473,-0.364 0.963,-0.704 0.49,-0.34 0.996,-0.654 0.507,-0.315 1.029,-0.604 0.521,-0.288 1.057,-0.55 0.536,-0.262 1.084,-0.497 0.548,-0.235 1.107,-0.442 c 7.799,-2.963 14.814,-1.964 22.233,1.245 1.054,-2.198 2.083,-4.442 3.438,-6.474 4.515,-6.769 10.59,-9.314 18.253,-10.854 z"
         id="path16" />
      <path
         fill="#f00370"
         transform="matrix(0.661133,0,0,0.661133,1.52588e-5,0)"
         d="m 505.519,484.668 c 0.512,-0.034 1.023,-0.073 1.535,-0.083 5.629,-0.105 10.72,2.092 14.763,5.96 6.231,5.961 9.023,14.134 9.084,22.611 0.113,15.679 -9.932,33.425 -20.631,44.322 -10.867,0.215 -21.882,-2.788 -31.807,-6.993 -8.929,-3.967 -17.605,-9.559 -22.906,-17.985 -3.569,-5.673 -5.404,-12.709 -3.738,-19.327 q 0.115,-0.45 0.253,-0.893 0.138,-0.444 0.297,-0.88 0.16,-0.436 0.341,-0.864 0.181,-0.427 0.384,-0.845 0.202,-0.418 0.425,-0.825 0.223,-0.408 0.467,-0.803 0.243,-0.396 0.506,-0.779 0.262,-0.383 0.544,-0.752 0.281,-0.37 0.581,-0.724 0.3,-0.355 0.617,-0.695 0.317,-0.339 0.65,-0.662 0.334,-0.323 0.683,-0.629 0.35,-0.306 0.714,-0.594 0.364,-0.288 0.742,-0.558 0.378,-0.269 0.77,-0.519 0.391,-0.251 0.794,-0.481 c 9.937,-5.771 15.461,-1.023 24.925,1.513 2.919,-1.019 4.11,-7.148 5.717,-9.714 3.316,-5.293 8.483,-7.412 14.29,-8.801 z"
         id="path17" />
      <path
         fill="#050c64"
         transform="matrix(0.661133,0,0,0.661133,1.52588e-5,0)"
         d="m 495.132,381.678 c 9.763,-0.928 19.841,2.082 27.762,7.766 9.044,6.49 15.029,16.812 16.737,27.773 q 0.164,1.07 0.275,2.147 0.111,1.077 0.17,2.158 0.058,1.081 0.064,2.163 0.006,1.083 -0.041,2.164 -0.046,1.082 -0.146,2.16 -0.099,1.078 -0.251,2.15 -0.152,1.071 -0.356,2.135 -0.204,1.063 -0.459,2.115 -0.256,1.052 -0.562,2.09 -0.306,1.038 -0.663,2.06 -0.357,1.022 -0.762,2.026 -0.406,1.003 -0.861,1.986 -0.454,0.983 -0.956,1.942 -0.502,0.959 -1.05,1.893 -0.547,0.933 -1.14,1.839 -0.593,0.906 -1.229,1.782 c -7.375,10.013 -17.946,15.093 -30.041,16.882 q -0.978,0.114 -1.961,0.18 -0.983,0.066 -1.968,0.084 -0.985,0.018 -1.969,-0.012 -0.985,-0.031 -1.967,-0.109 -0.982,-0.078 -1.959,-0.204 -0.977,-0.126 -1.946,-0.299 -0.97,-0.173 -1.93,-0.394 -0.96,-0.22 -1.908,-0.487 -0.948,-0.267 -1.882,-0.58 -0.934,-0.313 -1.852,-0.671 -0.917,-0.358 -1.816,-0.761 -0.899,-0.402 -1.778,-0.848 -0.878,-0.446 -1.734,-0.934 -0.855,-0.488 -1.686,-1.017 -0.831,-0.529 -1.635,-1.098 -0.804,-0.569 -1.579,-1.177 c -8.919,-6.892 -14.876,-17.725 -16.235,-28.885 q -0.138,-1.049 -0.223,-2.103 -0.085,-1.054 -0.118,-2.112 -0.032,-1.057 -0.011,-2.115 0.021,-1.057 0.094,-2.112 0.074,-1.055 0.201,-2.106 0.126,-1.05 0.306,-2.092 0.179,-1.043 0.41,-2.075 0.231,-1.032 0.514,-2.051 0.282,-1.02 0.616,-2.024 0.333,-1.003 0.716,-1.989 0.383,-0.986 0.816,-1.952 0.432,-0.965 0.912,-1.908 0.48,-0.942 1.007,-1.859 0.527,-0.918 1.099,-1.807 0.572,-0.89 1.188,-1.75 0.616,-0.86 1.274,-1.688 c 7.752,-9.878 18.247,-14.719 30.513,-16.276 z"
         id="path18" />
      <path
         fill="#fefefe"
         transform="matrix(0.661133,0,0,0.661133,1.52588e-5,0)"
         d="m 477.929,399.542 c 4.351,-0.31 8.228,0.053 12.103,2.231 q 0.795,0.453 1.542,0.983 0.746,0.53 1.435,1.132 0.69,0.602 1.316,1.27 0.626,0.668 1.182,1.395 0.556,0.727 1.037,1.505 0.481,0.779 0.882,1.602 0.401,0.823 0.717,1.682 0.317,0.859 0.546,1.745 0.242,0.887 0.394,1.794 0.152,0.907 0.212,1.825 0.06,0.917 0.029,1.836 -0.032,0.919 -0.155,1.83 -0.123,0.912 -0.337,1.806 -0.213,0.895 -0.515,1.763 -0.302,0.869 -0.689,1.703 -0.387,0.834 -0.856,1.625 c -2.811,4.685 -7.168,7.272 -12.336,8.666 -3.968,0.618 -7.806,0.114 -11.404,-1.733 q -0.429,-0.224 -0.846,-0.47 -0.417,-0.245 -0.821,-0.512 -0.404,-0.267 -0.793,-0.555 -0.39,-0.287 -0.763,-0.595 -0.374,-0.307 -0.732,-0.634 -0.357,-0.326 -0.697,-0.67 -0.34,-0.345 -0.662,-0.706 -0.322,-0.362 -0.625,-0.74 -0.302,-0.378 -0.585,-0.771 -0.283,-0.393 -0.544,-0.8 -0.262,-0.407 -0.503,-0.827 -0.24,-0.42 -0.458,-0.852 -0.219,-0.432 -0.414,-0.875 -0.196,-0.442 -0.368,-0.895 -0.173,-0.452 -0.322,-0.913 -0.148,-0.46 -0.273,-0.928 -0.239,-0.869 -0.392,-1.756 -0.154,-0.888 -0.219,-1.787 -0.066,-0.898 -0.043,-1.799 0.023,-0.901 0.134,-1.795 0.111,-0.894 0.309,-1.773 0.198,-0.879 0.481,-1.734 0.283,-0.855 0.648,-1.679 0.366,-0.823 0.81,-1.607 c 2.866,-4.998 7.234,-7.429 12.575,-8.987 z"
         id="path19" />
      <path
         fill="#050c64"
         transform="matrix(0.661133,0,0,0.661133,1.52588e-5,0)"
         d="m 709.358,435.152 c 1.067,-0.125 2.181,-0.143 3.256,-0.159 7.92,-0.117 13.563,3.896 18.989,9.124 1.334,-1.134 2.686,-2.248 4.143,-3.223 5.461,-3.656 12.228,-4.744 18.622,-3.387 7.275,1.544 13.35,6.162 17.351,12.331 q 0.42,0.66 0.807,1.34 0.387,0.68 0.741,1.378 0.353,0.698 0.672,1.413 0.319,0.714 0.602,1.444 0.284,0.729 0.531,1.471 0.248,0.743 0.458,1.496 0.211,0.754 0.385,1.517 0.174,0.762 0.31,1.533 0.136,0.77 0.235,1.547 0.098,0.776 0.158,1.556 0.06,0.78 0.082,1.562 0.022,0.782 0.006,1.565 -0.016,0.782 -0.071,1.563 -0.054,0.78 -0.147,1.557 -0.093,0.777 -0.223,1.548 -0.131,0.772 -0.299,1.536 c -3.215,15.024 -15.438,25.767 -27.761,33.73 q -9.63,5.817 -20.091,9.957 c -6.941,-3.562 -13.572,-7.462 -19.883,-12.064 -11.427,-8.335 -22.822,-19.626 -25.025,-34.241 -1.273,-8.45 0.719,-17.889 5.965,-24.732 4.973,-6.488 12.225,-10.166 20.187,-11.362 z"
         id="path20" />
      <path
         fill="#f00370"
         transform="matrix(0.661133,0,0,0.661133,1.52588e-5,0)"
         d="m 708.583,440.567 c 1.611,-0.11 3.329,-0.223 4.942,-0.104 7.837,0.574 12.712,5.697 17.671,11.131 1.635,-1.492 3.269,-2.994 4.958,-4.426 4.261,-3.614 9.125,-5.437 14.758,-4.893 5.917,0.572 11.226,3.769 14.874,8.404 q 0.406,0.52 0.785,1.06 0.379,0.54 0.73,1.099 0.351,0.558 0.674,1.134 0.322,0.576 0.614,1.167 0.293,0.592 0.555,1.197 0.262,0.606 0.492,1.224 0.231,0.618 0.43,1.247 0.199,0.629 0.365,1.268 0.167,0.638 0.301,1.284 0.134,0.646 0.235,1.298 0.101,0.652 0.168,1.308 0.068,0.657 0.101,1.316 0.034,0.659 0.035,1.318 0,0.66 -0.033,1.319 -0.033,0.659 -0.1,1.315 -0.067,0.657 -0.167,1.309 c -1.905,12.861 -11.567,22.215 -21.553,29.551 -6.57,4.69 -13.682,8.263 -21.003,11.591 -2.398,-1.067 -4.666,-2.36 -6.933,-3.679 -13.124,-7.637 -28.471,-18.723 -32.414,-34.32 -1.835,-7.258 -1.185,-15.827 2.889,-22.232 3.925,-6.169 9.709,-9.257 16.626,-10.886 z"
         id="path21" />
      <path
         fill="#050c64"
         transform="matrix(0.661133,0,0,0.661133,1.52588e-5,0)"
         d="m 711.308,333.699 c 9.918,-0.295 20.174,2.766 27.975,8.972 8.941,7.113 14.86,18.215 16.02,29.561 1.184,11.582 -2.782,23.197 -10.216,32.083 -8.027,9.595 -18.994,14.414 -31.262,15.555 -10.665,0.14 -20.915,-2.584 -29.316,-9.377 -8.288,-6.701 -13.978,-16.623 -15.064,-27.26 q -0.118,-1.121 -0.18,-2.246 -0.062,-1.126 -0.068,-2.253 -0.005,-1.127 0.045,-2.253 0.05,-1.126 0.156,-2.248 0.106,-1.122 0.268,-2.238 0.162,-1.115 0.379,-2.221 0.217,-1.106 0.489,-2.2 0.272,-1.094 0.598,-2.173 0.326,-1.079 0.706,-2.14 0.379,-1.062 0.811,-2.103 0.432,-1.041 0.914,-2.06 0.483,-1.018 1.016,-2.011 0.533,-0.993 1.115,-1.959 0.582,-0.965 1.211,-1.9 0.629,-0.935 1.304,-1.838 0.675,-0.903 1.394,-1.771 c 8.136,-9.922 19.147,-14.661 31.705,-15.92 z"
         id="path22" />
      <path
         fill="#fefefe"
         transform="matrix(0.661133,0,0,0.661133,1.52588e-5,0)"
         d="m 694.479,351.596 c 3.627,-0.24 6.922,0.104 10.249,1.679 q 0.44,0.211 0.868,0.444 0.429,0.233 0.845,0.488 0.416,0.255 0.819,0.53 0.402,0.276 0.79,0.572 0.388,0.296 0.761,0.611 0.372,0.315 0.728,0.649 0.356,0.334 0.694,0.685 0.338,0.352 0.658,0.72 0.32,0.368 0.621,0.752 0.3,0.385 0.581,0.784 0.281,0.399 0.541,0.812 0.26,0.412 0.498,0.838 0.239,0.425 0.456,0.863 0.216,0.437 0.41,0.884 0.194,0.448 0.365,0.905 0.171,0.457 0.318,0.922 0.134,0.419 0.246,0.844 0.112,0.425 0.202,0.855 0.09,0.43 0.158,0.865 0.067,0.434 0.113,0.871 0.045,0.437 0.067,0.876 0.023,0.439 0.023,0.879 0,0.44 -0.023,0.879 -0.023,0.439 -0.068,0.876 -0.045,0.437 -0.113,0.871 -0.068,0.435 -0.158,0.865 -0.091,0.43 -0.203,0.855 -0.112,0.425 -0.246,0.844 -0.134,0.418 -0.29,0.83 -0.155,0.411 -0.332,0.813 -0.176,0.403 -0.373,0.796 -0.197,0.393 -0.414,0.775 c -3.067,5.379 -7.965,7.586 -13.693,9.036 -4.512,0.354 -8.561,-0.07 -12.495,-2.508 q -0.769,-0.478 -1.487,-1.03 -0.718,-0.552 -1.377,-1.172 -0.659,-0.621 -1.254,-1.304 -0.594,-0.683 -1.117,-1.421 -0.524,-0.739 -0.971,-1.526 -0.447,-0.787 -0.814,-1.615 -0.367,-0.828 -0.65,-1.688 -0.282,-0.86 -0.478,-1.744 c -1.07,-4.708 -0.309,-9.657 2.392,-13.69 3.167,-4.729 7.782,-6.883 13.153,-8.07 z"
         id="path23" />
    </g>
  </g>
</svg>
