<?xml version="1.0" encoding="UTF-8" standalone="no"?>
<svg
   viewbox="0 0 677.00018 677.53412"
   width="677.00018"
   height="677.53412"
   version="1.1"
   id="svg25"
   xmlns="http://www.w3.org/2000/svg"
   xmlns:svg="http://www.w3.org/2000/svg">
  <defs
     id="defs25" />
  <!-- <path
     fill="#58d5e622"
     d="M 0,0.53393561 H 677.00019 V 677.53413 H 0 Z"
     id="path1"
     style="stroke-width:0.661133" /> -->
  <g
     id="g26"
     transform="matrix(1.4678692,0,0,1.4678692,-159.2411,-158.60401)">
    <g
       id="g27">
      <path
         fill="#050c6422"
         transform="matrix(0.661133,0,0,0.661133,1.52588e-5,0)"
         d="m 711.714,163.66 c 4.376,-0.583 9.178,-0.037 13.298,1.531 9.084,3.458 13.323,10.408 17.138,18.746 1.923,-0.54 3.892,-1.047 5.868,-1.348 7.614,-1.157 15.47,0.15 21.698,4.904 8.657,6.606 11.11,16.064 12.307,26.341 7.14,-1.956 14.179,-2.755 21.288,0.004 8.657,3.358 13.566,9.899 17.082,18.112 1.751,-0.622 3.521,-1.134 5.371,-1.369 q 0.589,-0.07 1.181,-0.111 0.591,-0.04 1.184,-0.051 0.593,-0.011 1.186,0.008 0.593,0.019 1.184,0.068 0.591,0.048 1.178,0.127 0.588,0.078 1.172,0.186 0.583,0.108 1.16,0.245 0.577,0.137 1.146,0.303 0.569,0.166 1.13,0.36 0.56,0.195 1.11,0.417 0.55,0.222 1.088,0.472 0.538,0.249 1.062,0.525 0.525,0.277 1.035,0.579 0.511,0.302 1.005,0.63 0.494,0.327 0.972,0.679 0.477,0.352 0.936,0.728 0.51,0.403 1,0.832 0.489,0.429 0.956,0.882 0.467,0.453 0.91,0.929 0.443,0.476 0.862,0.974 0.418,0.498 0.811,1.017 0.393,0.518 0.759,1.056 0.366,0.538 0.704,1.094 0.338,0.555 0.648,1.127 0.309,0.573 0.59,1.16 0.28,0.587 0.53,1.187 0.25,0.601 0.469,1.213 0.219,0.613 0.407,1.236 0.188,0.623 0.344,1.254 0.156,0.632 0.28,1.27 0.124,0.639 0.215,1.283 0.092,0.644 0.15,1.292 c 0.656,7.959 0.014,16.385 -0.045,24.391 l -0.201,47.266 -0.372,167.537 -0.004,162.734 0.215,47.88 c 0.034,9.014 0.55,18.411 -0.389,27.379 -1.1,10.509 -6.244,21.521 -13.087,29.512 -4.465,5.214 -10.332,10.088 -16.591,12.992 -7.131,3.31 -15.488,4.97 -23.075,7.042 l -41.766,11.326 q -59.117,16.658 -118.992,30.341 -59.874,13.684 -120.358,24.36 -55.228,9.861 -111.116,14.745 c -17.387,1.404 -31.37,0.789 -45.207,-11.138 q -0.957,-0.831 -1.872,-1.707 -0.916,-0.876 -1.788,-1.795 -0.872,-0.92 -1.698,-1.881 -0.826,-0.96 -1.604,-1.96 -0.779,-1 -1.508,-2.036 -0.729,-1.037 -1.407,-2.107 -0.678,-1.071 -1.303,-2.173 -0.625,-1.102 -1.196,-2.233 -0.571,-1.132 -1.086,-2.289 -0.516,-1.158 -0.974,-2.339 -0.459,-1.182 -0.859,-2.384 -0.401,-1.202 -0.743,-2.422 -0.341,-1.22 -0.624,-2.456 -0.282,-1.235 -0.504,-2.482 -0.221,-1.248 -0.382,-2.505 -0.161,-1.257 -0.261,-2.52 -14.616,-8.946 -29.053,-18.177 c -0.27,-0.152 -0.542,-0.301 -0.81,-0.457 -7.56,-4.425 -14.927,-9.277 -22.399,-13.857 q -32.855,-20.007 -65.294,-40.682 c -11.42,-7.215 -24.769,-12.912 -34.577,-22.28 q -1.555,-1.499 -3.003,-3.101 -1.449,-1.601 -2.785,-3.298 -1.337,-1.696 -2.554,-3.48 -1.217,-1.784 -2.31,-3.646 -1.093,-1.863 -2.057,-3.796 -0.963,-1.933 -1.792,-3.927 -0.829,-1.994 -1.521,-4.04 -0.691,-2.046 -1.241,-4.134 c -3.483,-12.866 -2.422,-26.501 -2.399,-39.703 l 0.042,-36.841 0.081,-118.106 -0.026,-162.903 0.017,-51.577 c -0.005,-9.902 -0.425,-20.032 0.272,-29.911 0.564,-7.979 2.81,-15.4 6.827,-22.332 q 0.664,-1.162 1.387,-2.29 0.722,-1.127 1.5,-2.216 0.778,-1.09 1.611,-2.139 0.832,-1.048 1.716,-2.054 0.884,-1.005 1.818,-1.965 0.933,-0.96 1.914,-1.871 0.981,-0.911 2.006,-1.772 1.026,-0.86 2.094,-1.668 1.067,-0.808 2.174,-1.561 1.107,-0.753 2.251,-1.449 1.144,-0.696 2.321,-1.334 1.177,-0.637 2.385,-1.214 1.208,-0.578 2.444,-1.093 1.235,-0.516 2.495,-0.969 1.26,-0.453 2.542,-0.841 1.281,-0.389 2.58,-0.712 c 10.075,-2.569 21.178,-2.525 31.097,0.738 12.026,3.956 28.22,15.404 39.45,22.276 24.783,15.165 49.347,30.795 74.399,45.504 q 2.763,-4.79 5.987,-9.283 1.103,-1.563 2.263,-3.084 1.16,-1.522 2.375,-2.999 1.216,-1.477 2.485,-2.909 1.27,-1.431 2.591,-2.814 1.321,-1.384 2.693,-2.717 1.372,-1.334 2.792,-2.616 1.42,-1.282 2.886,-2.51 1.467,-1.229 2.978,-2.402 1.511,-1.174 3.064,-2.29 1.553,-1.117 3.147,-2.176 1.593,-1.058 3.225,-2.057 1.632,-0.999 3.299,-1.936 1.668,-0.938 3.369,-1.814 1.701,-0.875 3.433,-1.687 1.732,-0.812 3.493,-1.559 1.761,-0.747 3.549,-1.429 c 18.27,-7.037 38.28,-8.41 57.467,-11.66 q 39.455,-6.731 78.726,-14.468 50.74,-10.272 101.28,-21.486 l 38.06,-8.709 c 8.158,-1.905 16.351,-4.125 24.619,-5.487 z"
         id="path2" />
      <path
         fill="#fefefe22"
         transform="matrix(0.661133,0,0,0.661133,1.52588e-5,0)"
         d="m 792.518,224.204 c 1.731,0.131 3.536,0.221 5.184,0.803 5.463,1.929 8.112,6.401 10.348,11.393 -51.669,16.721 -105.233,29.25 -158.133,41.336 q -61.82,14.291 -124.25,25.63 -52.217,9.963 -104.917,16.938 c -5.199,0.617 -10.331,1.16 -15.568,1.351 14.26,-11.172 32.011,-18.746 49.276,-23.986 25.264,-7.667 51.322,-12.349 77.177,-17.507 q 58.894,-11.404 117.591,-23.784 50.668,-10.85 101.163,-22.478 c 7.06,-1.595 14.137,-3.066 21.154,-4.848 6.835,-1.736 13.959,-4.126 20.975,-4.848 z"
         id="path4" />
      <path
         fill="#fefefe22"
         transform="matrix(0.661133,0,0,0.661133,1.52588e-5,0)"
         d="m 715.797,176.682 q 1.141,-0.015 2.269,0.164 1.127,0.179 2.208,0.546 c 6.571,2.263 9.82,9.539 12.459,15.391 -6.353,1.714 -12.954,2.888 -19.387,4.323 l -39.522,8.796 q -69.405,15.745 -139.246,29.422 -21.031,4.218 -42.106,8.207 c -15.504,2.859 -30.564,5.128 -45.426,10.613 -31.344,11.569 -56.439,31.974 -70.593,62.658 -0.441,1.325 -0.887,2.356 -1.61,3.55 -3.793,0.032 -10.08,-5.255 -13.005,-7.642 0.174,-17.883 6.158,-33.936 17.306,-47.891 11.317,-14.166 27.562,-23.721 44.594,-29.384 14.546,-4.837 34.431,-6.174 49.928,-8.741 q 42.843,-7.144 85.414,-15.757 c 39.035,-7.799 77.8,-16.689 116.712,-25.034 12.599,-2.702 27.662,-7.791 40.005,-9.221 z"
         id="path5" />
      <path
         fill="#fefefe22"
         transform="matrix(0.661133,0,0,0.661133,1.52588e-5,0)"
         d="m 752.254,196.636 c 1.575,-0.153 3.15,-0.309 4.729,-0.121 3.06,0.364 5.696,1.75 7.538,4.247 4.201,5.696 3.261,14.247 2.184,20.815 -17.303,4.694 -35.149,7.815 -52.636,11.808 q -77.658,17.479 -155.764,32.833 c -36.743,7.216 -81.434,14.226 -116.506,26.991 -16.847,6.132 -32.08,14.664 -46.478,25.307 l -4.792,3.997 c -2.095,0.154 -4.004,0.279 -6.095,-0.032 l -0.388,-0.709 c 1.093,-5.514 5.485,-12.137 8.668,-16.731 12.506,-18.051 30.33,-31.441 50.498,-39.852 23.757,-9.907 52.13,-13.328 77.477,-18.208 q 43.01,-8.513 85.929,-17.479 c 34.473,-7.245 68.903,-15.012 103.256,-22.817 14.101,-3.203 28.161,-7.507 42.38,-10.049 z"
         id="path6" />
      <path
         fill="#58d5e622"
         transform="matrix(0.661133,0,0,0.661133,1.52588e-5,0)"
         d="m 825.847,245.102 c 2.937,-1.204 4.798,-1.623 7.846,-0.468 2.487,0.941 4.32,2.972 5.311,5.405 0.688,1.69 0.842,3.565 0.944,5.373 0.868,15.342 0.058,31.165 0.027,46.55 l -0.326,96.288 -0.473,217.155 -0.06,72.886 c -0.002,13.024 0.482,26.287 -0.18,39.284 -0.257,5.032 -1.468,9.697 -3.551,14.279 q -0.413,0.89 -0.87,1.758 -0.457,0.869 -0.955,1.714 -0.499,0.845 -1.038,1.665 -0.54,0.82 -1.118,1.612 -0.579,0.792 -1.196,1.555 -0.618,0.763 -1.271,1.494 -0.654,0.732 -1.343,1.431 -0.689,0.699 -1.411,1.363 -0.722,0.664 -1.476,1.292 -0.754,0.628 -1.538,1.218 -0.784,0.591 -1.596,1.142 -0.812,0.551 -1.65,1.061 -0.838,0.511 -1.699,0.98 -0.862,0.469 -1.746,0.895 -0.884,0.426 -1.788,0.808 -0.904,0.382 -1.825,0.72 c -10.684,3.884 -22.305,6.366 -33.251,9.525 q -40.864,11.986 -82.192,22.261 c -50.007,12.374 -99.929,24.396 -150.582,33.926 q -62.016,11.712 -124.774,18.396 c 2.928,-4.474 5.584,-8.899 6.996,-14.105 13.753,-0.253 27.437,-2.452 40.998,-4.574 q 24.401,-3.692 48.64,-8.331 59.534,-10.993 118.493,-24.741 58.959,-13.748 117.215,-30.223 c 14.345,-3.962 38.738,-8.113 51.44,-14.054 3.172,-1.483 6.131,-3.767 8.641,-6.189 4.866,-4.695 8.804,-11.422 9.693,-18.186 0.709,-5.401 0.511,-11.076 0.582,-16.526 q 0.159,-16.122 0.081,-32.244 l 0.055,-90.074 c 0.218,-114.073 -0.991,-228.268 0.947,-342.321 z"
         id="path11" />
      <path
         fill="#0642ae22"
         transform="matrix(0.661133,0,0,0.661133,1.52588e-5,0)"
         d="m 221.86,215.158 c 6.769,-0.566 13.734,-0.306 20.109,2.267 9.861,3.979 22.692,13.813 32.11,19.599 19.178,11.782 38.311,23.497 57.174,35.778 6.757,4.399 14.074,8.347 20.431,13.288 l -3.293,13.705 c -8.776,-5.562 -17.24,-11.613 -25.935,-17.303 l -49.593,-31.967 c -9.188,-5.96 -21.804,-15.491 -31.549,-19.801 -3.643,-1.611 -7.824,-2.319 -11.772,-1.701 -7.617,1.192 -13.995,6.177 -18.281,12.399 -4.748,6.893 -6.584,14.414 -7.115,22.66 -0.629,9.762 -0.25,19.768 -0.264,29.555 l -0.153,50.578 0.005,185.248 -0.098,99.691 -0.045,28.204 c 0.003,7.311 -0.38,15.295 1.113,22.48 3.361,16.177 25.232,27.538 37.869,35.782 13.619,9.15 27.627,17.732 41.439,26.588 l 59.567,38.197 -0.044,18.774 c -9.739,-5.194 -18.682,-11.859 -27.963,-17.812 -12.244,-7.853 -24.814,-15.273 -37.165,-22.967 -15.173,-9.45 -30.145,-19.239 -45.372,-28.595 -8.902,-5.469 -18.443,-10.287 -26.961,-16.34 -11.254,-7.996 -17.636,-19.308 -19.78,-32.823 -1.214,-7.655 -0.746,-15.744 -0.749,-23.481 l 0.013,-34.981 0.328,-129.383 0.193,-164.279 -0.08,-50.238 c -0.019,-8.987 -0.503,-18.274 0.163,-27.229 0.535,-7.19 3.773,-14.129 8.051,-19.863 6.805,-9.119 16.502,-14.356 27.647,-16.03 z"
         id="path12" />
      <path
         fill="#0642ae22"
         transform="matrix(0.661133,0,0,0.661133,1.52588e-5,0)"
         d="m 356.939,326.154 c 19.253,11.752 40.752,8.869 62.061,6.691 l 0.025,342.507 0.061,102.907 0.018,30.522 c -0.003,5.663 0.319,11.568 -0.319,17.187 -0.64,5.625 -3.897,10.482 -7.383,14.765 -0.12,0.128 -0.236,0.259 -0.36,0.383 -4.972,4.963 -11.388,8.456 -18.54,8.476 -8.771,0.024 -17.6,-4.917 -23.636,-11.03 -6.973,-7.062 -10.407,-16.256 -11.544,-25.976 -0.649,-5.538 -0.42,-11.329 -0.461,-16.904 q -0.103,-16.323 0.034,-32.645 l 0.16,-94.767 z"
         id="path13" />
      <path
         fill="#0398e022"
         d="m 428.961,331.594 c 11.122,-0.362 22.546,-2.514 33.561,-4.159 q 32.713,-4.897 65.236,-10.932 37.761,-6.646 75.303,-14.438 37.541,-7.793 74.829,-16.724 37.287,-8.931 74.284,-18.993 36.998,-10.062 73.673,-21.246 c -1.938,114.053 -0.729,228.248 -0.947,342.321 l -0.055,90.074 q 0.078,16.122 -0.081,32.244 c -0.071,5.45 0.127,11.125 -0.582,16.526 -0.889,6.764 -4.827,13.491 -9.693,18.186 -2.51,2.422 -5.469,4.706 -8.641,6.189 -12.702,5.941 -37.095,10.092 -51.44,14.054 q -58.256,16.475 -117.215,30.223 -58.959,13.748 -118.493,24.741 -24.239,4.639 -48.64,8.331 c -13.561,2.122 -27.245,4.321 -40.998,4.574 2.198,-14.075 0.926,-34.883 0.921,-49.711 l -0.031,-94.587 z"
         id="path14"
         transform="matrix(0.661133,0,0,0.661133,1.52588e-5,0)" />
    </g>
    <g
       id="g28">
      <path
         fill="#0398e022"
         d="m 214.977,343.194 c 5.538,1.542 11.182,4.467 16.347,7.035 3.154,1.58867 6.27533,3.23933 9.364,4.952 3.08867,1.712 6.14233,3.48467 9.161,5.318 3.01867,1.83267 5.99967,3.72433 8.943,5.675 2.944,1.95067 5.84833,3.95867 8.713,6.024 2.86467,2.06533 5.68733,4.18633 8.468,6.363 2.78133,2.17667 5.51833,4.40767 8.211,6.693 2.69267,2.28467 5.339,4.62167 7.939,7.011 2.60067,2.39 5.153,4.83 7.657,7.32 12.234,12.054 38.881,41.202 43.058,57.222 2.168,8.314 0.938,20.22 0.898,28.954 -0.10667,13.31533 1.75713,96.3635 1.86379,109.67883 -1.714,-0.81021 -29.91123,5.13065 -42.49267,12.50949 -14.83961,8.70322 -14.87265,8.78601 -44.25947,26.92308 -13.96386,-8.65783 -13.85597,-8.64998 -23.99728,-14.13546 -6.528,-2.843 -13.27448,-6.8186 -20.21648,-8.4296 -0.138,-28.174 0.18778,-240.94134 0.34311,-269.11334 z"
         id="path7"
         transform="matrix(0.661133,0,0,0.661133,1.52588e-5,0)" />
      <path
         d="m 226.91747,411.89756 q 0,0 -0.42975,0.21488 0.42975,1.50412 -1.28925,4.08262 -1.719,2.36363 -3.438,2.36363 -0.21487,0 -0.64462,0 -0.21488,0 -0.42975,0 -2.5785,0 -4.2975,-2.36363 -1.719,-2.36362 -1.719,-4.2975 v -44.47912 q 0,-2.79338 -2.14875,-4.94213 -2.14875,-2.14875 -4.94213,-2.14875 h -44.26425 q -2.79337,0 -5.157,2.14875 -2.14875,2.14875 -2.14875,4.94213 v 44.47912 q 0,1.28925 -0.64462,3.00825 -1.719,3.65288 -4.2975,3.65288 h -1.719 q -1.50413,0 -3.438,-2.36363 -0.8595,-0.8595 -1.50413,-3.00825 v -85.0905 q 0,0 0.21488,-0.21487 0.64462,-3.86775 3.65287,-8.595 2.5785,-4.08263 5.37188,-8.16525 3.438,-5.157 9.88425,-14.6115 4.2975,-6.66113 10.314,-6.66113 h 22.99162 q 5.37188,0 11.1735,7.52063 4.2975,6.0165 8.38013,12.24787 2.36362,3.438 7.09087,10.74375 3.438,5.37188 3.00825,9.02475 0.42975,0 0.42975,0.42975 z M 214.6696,335.61694 q 0,-8.80988 -2.14875,-13.10738 -0.8595,-1.50412 -7.7355,-10.74375 -7.52063,-10.09912 -13.53713,-10.09912 h -11.60325 q -3.86775,0 -6.876,2.36362 -1.719,1.50413 -9.02475,10.74375 -6.44625,8.38013 -7.09087,11.81813 -0.64463,2.5785 -0.64463,9.02475 0,4.72725 0.21488,6.876 0.42975,3.86775 4.08262,5.37187 1.719,0.64463 3.00825,0.64463 h 44.26425 q 4.72725,0 6.44625,-4.2975 0.64463,-1.93388 0.64463,-8.595 z"
         id="text25"
         style="fill:#f0037022;stroke:#f0386b22;stroke-width:0.724445"
         aria-label="A" />
      <path
         fill="#fefefe22"
         transform="matrix(0.661133,0,0,0.661133,1.52588e-5,0)"
         d="m 214.846,627.317 c 34.061,8.277 67.739,35.359 90.914,60.788 13.456,14.766 34.181,42.371 38.089,61.884 1.057,5.275 0.545,10.81 0.287,16.147 -2.576,-0.546 -5.684,-3.009 -7.935,-4.415 -16.415,-10.257 -32.391,-21.219 -48.767,-31.549 -19.125,-12.064 -38.748,-23.603 -57.528,-36.178 -2.647,-1.773 -5.144,-3.703 -7.39,-5.969 -3.587,-3.62 -5.848,-8.295 -6.926,-13.256 -1.402,-6.445 -0.853,-13.487 -0.837,-20.059 z"
         id="path3" />
      <path
         fill="#fefefe22"
         d="m 227.75313,401.93536 c -22.51885,3.15568 -37.75309,12.46052 -53.07485,22.15555 6.7419,3.62322 6.89166,4.40029 10.02175,6.83017 3.18792,2.47478 6.39763,4.81038 9.80224,7.69861 3.78087,3.20741 6.22023,5.86668 9.10233,9.01906 3.2764,3.58365 6.36474,7.34482 9.28686,11.22279 3.93525,5.22249 7.32368,10.83622 11.08033,16.18863 1.54391,2.19974 3.22412,7.40822 4.70902,6.54429 0,0 -0.77306,-39.80637 -0.92768,-59.71226 -0.0294,-3.78601 0.0106,-8.85275 0,-11.35838 z"
         id="path3-1"
         style="stroke-width:0.502058" />
      <path
         fill="#697cda22"
         transform="matrix(0.661133,0,0,0.661133,1.52588e-5,0)"
         d="m 231.579,243.147 c 1.533,0.06 2.73,0.259 4.073,1.038 3.587,2.078 6.985,4.681 10.433,6.988 q 11.782,7.799 23.438,15.783 c 10.54,7.183 21.283,14.041 31.898,21.109 13.91,9.262 27.565,18.538 42.01,26.97 0.169,40.91 -0.644,81.939 0.342,122.829 q -3.23,-4.885 -6.574,-9.694 C 311.436,389.711 259.472,346.63 215.002,332.691 l -0.023,-45.546 c -0.003,-8.335 -0.6,-17.196 0.538,-25.457 0.564,-4.096 1.746,-8.788 4.227,-12.136 2.963,-3.999 7.059,-5.69 11.835,-6.405 z"
         id="path10" />
    </g>
    <g
       id="g25"
       transform="translate(5.2477486,51.160822)">
      <path
         fill="#050c6422"
         transform="matrix(0.661133,0,0,0.661133,1.52588e-5,0)"
         d="m 648.983,459.511 c 0.742,-0.032 1.486,-0.065 2.228,-0.04 1.822,0.06 3.195,0.791 4.349,2.221 1.894,2.346 1.328,6.647 0.929,9.421 -1.845,12.815 -8.652,23.947 -19.024,31.648 q -0.983,0.726 -2,1.403 -1.017,0.676 -2.066,1.302 -1.049,0.627 -2.127,1.201 -1.078,0.574 -2.183,1.094 -1.105,0.521 -2.235,0.987 -1.129,0.466 -2.28,0.876 -1.15,0.41 -2.32,0.763 -1.169,0.354 -2.355,0.649 -1.185,0.296 -2.383,0.533 -1.199,0.237 -2.407,0.415 -1.209,0.179 -2.424,0.298 -1.216,0.119 -2.437,0.178 -1.22,0.059 -2.441,0.058 -1.222,0 -2.442,-0.06 -1.22,-0.061 -2.436,-0.181 -1.216,-0.12 -2.424,-0.299 c -13.26,-1.982 -24.327,-9.093 -32.29,-19.741 -2.262,-3.481 -3.798,-6.168 -3.535,-10.489 0.131,-2.151 0.692,-3.586 2.267,-5.044 0.94,-0.363 1.629,-0.556 2.626,-0.387 5.097,0.867 6.324,6.015 8.949,9.742 5.124,7.277 13.817,12.448 22.522,14.004 9.898,1.769 20.689,-0.517 28.938,-6.299 6.64,-4.655 11.931,-11.952 13.844,-19.885 0.744,-3.084 0.926,-6.292 1.511,-9.408 0.452,-2.403 1.142,-3.363 3.197,-4.679 0.148,-0.096 0.299,-0.187 0.449,-0.281 z"
         id="path15" />
      <path
         fill="#050c6422"
         transform="matrix(0.661133,0,0,0.661133,1.52588e-5,0)"
         d="m 505.445,479.639 c 2.757,-0.125 5.331,-0.16 8.049,0.472 7.513,1.749 13.349,6.732 17.222,13.252 5.782,9.733 6.496,22.254 3.681,33.05 -2.883,11.055 -9.287,20.942 -16.374,29.747 -1.593,1.979 -3.432,4.655 -5.697,5.867 -6.061,3.242 -25.267,-2.774 -31.453,-4.847 l -0.803,-0.317 c -12.636,-5.078 -26.331,-13.754 -31.781,-26.866 -2.814,-6.768 -3.179,-14.725 -0.264,-21.525 q 0.238,-0.547 0.504,-1.08 0.266,-0.534 0.558,-1.054 0.292,-0.52 0.61,-1.024 0.318,-0.505 0.66,-0.993 0.343,-0.488 0.71,-0.958 0.367,-0.47 0.757,-0.921 0.39,-0.451 0.803,-0.881 0.412,-0.431 0.845,-0.841 0.434,-0.409 0.887,-0.796 0.454,-0.388 0.926,-0.751 0.473,-0.364 0.963,-0.704 0.49,-0.34 0.996,-0.654 0.507,-0.315 1.029,-0.604 0.521,-0.288 1.057,-0.55 0.536,-0.262 1.084,-0.497 0.548,-0.235 1.107,-0.442 c 7.799,-2.963 14.814,-1.964 22.233,1.245 1.054,-2.198 2.083,-4.442 3.438,-6.474 4.515,-6.769 10.59,-9.314 18.253,-10.854 z"
         id="path16" />
      <path
         fill="#f0037022"
         transform="matrix(0.661133,0,0,0.661133,1.52588e-5,0)"
         d="m 505.519,484.668 c 0.512,-0.034 1.023,-0.073 1.535,-0.083 5.629,-0.105 10.72,2.092 14.763,5.96 6.231,5.961 9.023,14.134 9.084,22.611 0.113,15.679 -9.932,33.425 -20.631,44.322 -10.867,0.215 -21.882,-2.788 -31.807,-6.993 -8.929,-3.967 -17.605,-9.559 -22.906,-17.985 -3.569,-5.673 -5.404,-12.709 -3.738,-19.327 q 0.115,-0.45 0.253,-0.893 0.138,-0.444 0.297,-0.88 0.16,-0.436 0.341,-0.864 0.181,-0.427 0.384,-0.845 0.202,-0.418 0.425,-0.825 0.223,-0.408 0.467,-0.803 0.243,-0.396 0.506,-0.779 0.262,-0.383 0.544,-0.752 0.281,-0.37 0.581,-0.724 0.3,-0.355 0.617,-0.695 0.317,-0.339 0.65,-0.662 0.334,-0.323 0.683,-0.629 0.35,-0.306 0.714,-0.594 0.364,-0.288 0.742,-0.558 0.378,-0.269 0.77,-0.519 0.391,-0.251 0.794,-0.481 c 9.937,-5.771 15.461,-1.023 24.925,1.513 2.919,-1.019 4.11,-7.148 5.717,-9.714 3.316,-5.293 8.483,-7.412 14.29,-8.801 z"
         id="path17" />
      <path
         fill="#050c6422"
         transform="matrix(0.661133,0,0,0.661133,1.52588e-5,0)"
         d="m 495.132,381.678 c 9.763,-0.928 19.841,2.082 27.762,7.766 9.044,6.49 15.029,16.812 16.737,27.773 q 0.164,1.07 0.275,2.147 0.111,1.077 0.17,2.158 0.058,1.081 0.064,2.163 0.006,1.083 -0.041,2.164 -0.046,1.082 -0.146,2.16 -0.099,1.078 -0.251,2.15 -0.152,1.071 -0.356,2.135 -0.204,1.063 -0.459,2.115 -0.256,1.052 -0.562,2.09 -0.306,1.038 -0.663,2.06 -0.357,1.022 -0.762,2.026 -0.406,1.003 -0.861,1.986 -0.454,0.983 -0.956,1.942 -0.502,0.959 -1.05,1.893 -0.547,0.933 -1.14,1.839 -0.593,0.906 -1.229,1.782 c -7.375,10.013 -17.946,15.093 -30.041,16.882 q -0.978,0.114 -1.961,0.18 -0.983,0.066 -1.968,0.084 -0.985,0.018 -1.969,-0.012 -0.985,-0.031 -1.967,-0.109 -0.982,-0.078 -1.959,-0.204 -0.977,-0.126 -1.946,-0.299 -0.97,-0.173 -1.93,-0.394 -0.96,-0.22 -1.908,-0.487 -0.948,-0.267 -1.882,-0.58 -0.934,-0.313 -1.852,-0.671 -0.917,-0.358 -1.816,-0.761 -0.899,-0.402 -1.778,-0.848 -0.878,-0.446 -1.734,-0.934 -0.855,-0.488 -1.686,-1.017 -0.831,-0.529 -1.635,-1.098 -0.804,-0.569 -1.579,-1.177 c -8.919,-6.892 -14.876,-17.725 -16.235,-28.885 q -0.138,-1.049 -0.223,-2.103 -0.085,-1.054 -0.118,-2.112 -0.032,-1.057 -0.011,-2.115 0.021,-1.057 0.094,-2.112 0.074,-1.055 0.201,-2.106 0.126,-1.05 0.306,-2.092 0.179,-1.043 0.41,-2.075 0.231,-1.032 0.514,-2.051 0.282,-1.02 0.616,-2.024 0.333,-1.003 0.716,-1.989 0.383,-0.986 0.816,-1.952 0.432,-0.965 0.912,-1.908 0.48,-0.942 1.007,-1.859 0.527,-0.918 1.099,-1.807 0.572,-0.89 1.188,-1.75 0.616,-0.86 1.274,-1.688 c 7.752,-9.878 18.247,-14.719 30.513,-16.276 z"
         id="path18" />
      <path
         fill="#fefefe22"
         transform="matrix(0.661133,0,0,0.661133,1.52588e-5,0)"
         d="m 477.929,399.542 c 4.351,-0.31 8.228,0.053 12.103,2.231 q 0.795,0.453 1.542,0.983 0.746,0.53 1.435,1.132 0.69,0.602 1.316,1.27 0.626,0.668 1.182,1.395 0.556,0.727 1.037,1.505 0.481,0.779 0.882,1.602 0.401,0.823 0.717,1.682 0.317,0.859 0.546,1.745 0.242,0.887 0.394,1.794 0.152,0.907 0.212,1.825 0.06,0.917 0.029,1.836 -0.032,0.919 -0.155,1.83 -0.123,0.912 -0.337,1.806 -0.213,0.895 -0.515,1.763 -0.302,0.869 -0.689,1.703 -0.387,0.834 -0.856,1.625 c -2.811,4.685 -7.168,7.272 -12.336,8.666 -3.968,0.618 -7.806,0.114 -11.404,-1.733 q -0.429,-0.224 -0.846,-0.47 -0.417,-0.245 -0.821,-0.512 -0.404,-0.267 -0.793,-0.555 -0.39,-0.287 -0.763,-0.595 -0.374,-0.307 -0.732,-0.634 -0.357,-0.326 -0.697,-0.67 -0.34,-0.345 -0.662,-0.706 -0.322,-0.362 -0.625,-0.74 -0.302,-0.378 -0.585,-0.771 -0.283,-0.393 -0.544,-0.8 -0.262,-0.407 -0.503,-0.827 -0.24,-0.42 -0.458,-0.852 -0.219,-0.432 -0.414,-0.875 -0.196,-0.442 -0.368,-0.895 -0.173,-0.452 -0.322,-0.913 -0.148,-0.46 -0.273,-0.928 -0.239,-0.869 -0.392,-1.756 -0.154,-0.888 -0.219,-1.787 -0.066,-0.898 -0.043,-1.799 0.023,-0.901 0.134,-1.795 0.111,-0.894 0.309,-1.773 0.198,-0.879 0.481,-1.734 0.283,-0.855 0.648,-1.679 0.366,-0.823 0.81,-1.607 c 2.866,-4.998 7.234,-7.429 12.575,-8.987 z"
         id="path19" />
      <path
         fill="#050c6422"
         transform="matrix(0.661133,0,0,0.661133,1.52588e-5,0)"
         d="m 709.358,435.152 c 1.067,-0.125 2.181,-0.143 3.256,-0.159 7.92,-0.117 13.563,3.896 18.989,9.124 1.334,-1.134 2.686,-2.248 4.143,-3.223 5.461,-3.656 12.228,-4.744 18.622,-3.387 7.275,1.544 13.35,6.162 17.351,12.331 q 0.42,0.66 0.807,1.34 0.387,0.68 0.741,1.378 0.353,0.698 0.672,1.413 0.319,0.714 0.602,1.444 0.284,0.729 0.531,1.471 0.248,0.743 0.458,1.496 0.211,0.754 0.385,1.517 0.174,0.762 0.31,1.533 0.136,0.77 0.235,1.547 0.098,0.776 0.158,1.556 0.06,0.78 0.082,1.562 0.022,0.782 0.006,1.565 -0.016,0.782 -0.071,1.563 -0.054,0.78 -0.147,1.557 -0.093,0.777 -0.223,1.548 -0.131,0.772 -0.299,1.536 c -3.215,15.024 -15.438,25.767 -27.761,33.73 q -9.63,5.817 -20.091,9.957 c -6.941,-3.562 -13.572,-7.462 -19.883,-12.064 -11.427,-8.335 -22.822,-19.626 -25.025,-34.241 -1.273,-8.45 0.719,-17.889 5.965,-24.732 4.973,-6.488 12.225,-10.166 20.187,-11.362 z"
         id="path20" />
      <path
         fill="#f0037022"
         transform="matrix(0.661133,0,0,0.661133,1.52588e-5,0)"
         d="m 708.583,440.567 c 1.611,-0.11 3.329,-0.223 4.942,-0.104 7.837,0.574 12.712,5.697 17.671,11.131 1.635,-1.492 3.269,-2.994 4.958,-4.426 4.261,-3.614 9.125,-5.437 14.758,-4.893 5.917,0.572 11.226,3.769 14.874,8.404 q 0.406,0.52 0.785,1.06 0.379,0.54 0.73,1.099 0.351,0.558 0.674,1.134 0.322,0.576 0.614,1.167 0.293,0.592 0.555,1.197 0.262,0.606 0.492,1.224 0.231,0.618 0.43,1.247 0.199,0.629 0.365,1.268 0.167,0.638 0.301,1.284 0.134,0.646 0.235,1.298 0.101,0.652 0.168,1.308 0.068,0.657 0.101,1.316 0.034,0.659 0.035,1.318 0,0.66 -0.033,1.319 -0.033,0.659 -0.1,1.315 -0.067,0.657 -0.167,1.309 c -1.905,12.861 -11.567,22.215 -21.553,29.551 -6.57,4.69 -13.682,8.263 -21.003,11.591 -2.398,-1.067 -4.666,-2.36 -6.933,-3.679 -13.124,-7.637 -28.471,-18.723 -32.414,-34.32 -1.835,-7.258 -1.185,-15.827 2.889,-22.232 3.925,-6.169 9.709,-9.257 16.626,-10.886 z"
         id="path21" />
      <path
         fill="#050c6422"
         transform="matrix(0.661133,0,0,0.661133,1.52588e-5,0)"
         d="m 711.308,333.699 c 9.918,-0.295 20.174,2.766 27.975,8.972 8.941,7.113 14.86,18.215 16.02,29.561 1.184,11.582 -2.782,23.197 -10.216,32.083 -8.027,9.595 -18.994,14.414 -31.262,15.555 -10.665,0.14 -20.915,-2.584 -29.316,-9.377 -8.288,-6.701 -13.978,-16.623 -15.064,-27.26 q -0.118,-1.121 -0.18,-2.246 -0.062,-1.126 -0.068,-2.253 -0.005,-1.127 0.045,-2.253 0.05,-1.126 0.156,-2.248 0.106,-1.122 0.268,-2.238 0.162,-1.115 0.379,-2.221 0.217,-1.106 0.489,-2.2 0.272,-1.094 0.598,-2.173 0.326,-1.079 0.706,-2.14 0.379,-1.062 0.811,-2.103 0.432,-1.041 0.914,-2.06 0.483,-1.018 1.016,-2.011 0.533,-0.993 1.115,-1.959 0.582,-0.965 1.211,-1.9 0.629,-0.935 1.304,-1.838 0.675,-0.903 1.394,-1.771 c 8.136,-9.922 19.147,-14.661 31.705,-15.92 z"
         id="path22" />
      <path
         fill="#fefefe22"
         transform="matrix(0.661133,0,0,0.661133,1.52588e-5,0)"
         d="m 694.479,351.596 c 3.627,-0.24 6.922,0.104 10.249,1.679 q 0.44,0.211 0.868,0.444 0.429,0.233 0.845,0.488 0.416,0.255 0.819,0.53 0.402,0.276 0.79,0.572 0.388,0.296 0.761,0.611 0.372,0.315 0.728,0.649 0.356,0.334 0.694,0.685 0.338,0.352 0.658,0.72 0.32,0.368 0.621,0.752 0.3,0.385 0.581,0.784 0.281,0.399 0.541,0.812 0.26,0.412 0.498,0.838 0.239,0.425 0.456,0.863 0.216,0.437 0.41,0.884 0.194,0.448 0.365,0.905 0.171,0.457 0.318,0.922 0.134,0.419 0.246,0.844 0.112,0.425 0.202,0.855 0.09,0.43 0.158,0.865 0.067,0.434 0.113,0.871 0.045,0.437 0.067,0.876 0.023,0.439 0.023,0.879 0,0.44 -0.023,0.879 -0.023,0.439 -0.068,0.876 -0.045,0.437 -0.113,0.871 -0.068,0.435 -0.158,0.865 -0.091,0.43 -0.203,0.855 -0.112,0.425 -0.246,0.844 -0.134,0.418 -0.29,0.83 -0.155,0.411 -0.332,0.813 -0.176,0.403 -0.373,0.796 -0.197,0.393 -0.414,0.775 c -3.067,5.379 -7.965,7.586 -13.693,9.036 -4.512,0.354 -8.561,-0.07 -12.495,-2.508 q -0.769,-0.478 -1.487,-1.03 -0.718,-0.552 -1.377,-1.172 -0.659,-0.621 -1.254,-1.304 -0.594,-0.683 -1.117,-1.421 -0.524,-0.739 -0.971,-1.526 -0.447,-0.787 -0.814,-1.615 -0.367,-0.828 -0.65,-1.688 -0.282,-0.86 -0.478,-1.744 c -1.07,-4.708 -0.309,-9.657 2.392,-13.69 3.167,-4.729 7.782,-6.883 13.153,-8.07 z"
         id="path23" />
    </g>
  </g>
</svg>
